<mxfile host="app.diagrams.net" agent="Mozilla/5.0 (Windows NT 10.0; Win64; x64) AppleWebKit/537.36 (KHTML, like Gecko) Chrome/138.0.0.0 Safari/537.36" scale="1" border="0" version="28.0.7" pages="3">
  <diagram id="8PDXhvLtXjsZ51yHtRnF" name="Page-2">
    <mxGraphModel dx="1042" dy="752" grid="1" gridSize="10" guides="1" tooltips="1" connect="1" arrows="1" fold="1" page="1" pageScale="1" pageWidth="850" pageHeight="1100" math="0" shadow="0">
      <root>
        <mxCell id="0" />
        <mxCell id="1" parent="0" />
        <mxCell id="fVuIcmsa2AaCxCJn5JJC-1" value="addNewListing()" style="html=1;verticalAlign=bottom;startArrow=circle;startFill=1;endArrow=open;startSize=6;endSize=8;curved=0;rounded=0;fontFamily=Helvetica;fontSize=12;fontColor=default;entryX=0;entryY=0.5;entryDx=0;entryDy=0;" parent="1" target="fVuIcmsa2AaCxCJn5JJC-3" edge="1">
          <mxGeometry width="80" relative="1" as="geometry">
            <mxPoint x="40" y="120" as="sourcePoint" />
            <mxPoint x="120" y="120" as="targetPoint" />
          </mxGeometry>
        </mxCell>
        <mxCell id="fVuIcmsa2AaCxCJn5JJC-5" value="[offer accepted]" style="edgeStyle=orthogonalEdgeStyle;rounded=0;orthogonalLoop=1;jettySize=auto;html=1;exitX=1;exitY=0.5;exitDx=0;exitDy=0;fontFamily=Helvetica;fontSize=12;fontColor=default;labelPosition=center;verticalLabelPosition=top;align=center;verticalAlign=bottom;" parent="1" source="fVuIcmsa2AaCxCJn5JJC-3" target="fVuIcmsa2AaCxCJn5JJC-4" edge="1">
          <mxGeometry relative="1" as="geometry" />
        </mxCell>
        <mxCell id="fVuIcmsa2AaCxCJn5JJC-13" value="updateListing()" style="edgeStyle=orthogonalEdgeStyle;rounded=0;orthogonalLoop=1;jettySize=auto;html=1;exitX=0.5;exitY=1;exitDx=0;exitDy=0;entryX=0;entryY=0.5;entryDx=0;entryDy=0;fontFamily=Helvetica;fontSize=12;fontColor=default;labelPosition=center;verticalLabelPosition=top;align=center;verticalAlign=bottom;" parent="1" source="fVuIcmsa2AaCxCJn5JJC-3" target="fVuIcmsa2AaCxCJn5JJC-12" edge="1">
          <mxGeometry x="0.6" y="20" relative="1" as="geometry">
            <Array as="points">
              <mxPoint x="200" y="150" />
              <mxPoint x="200" y="310" />
            </Array>
            <mxPoint as="offset" />
          </mxGeometry>
        </mxCell>
        <mxCell id="fVuIcmsa2AaCxCJn5JJC-3" value="For Sale" style="whiteSpace=wrap;html=1;strokeColor=default;align=center;verticalAlign=middle;fontFamily=Helvetica;fontSize=12;fontColor=default;fillColor=default;rounded=1;" parent="1" vertex="1">
          <mxGeometry x="170" y="90" width="120" height="60" as="geometry" />
        </mxCell>
        <mxCell id="fVuIcmsa2AaCxCJn5JJC-8" value="saleClosed()" style="edgeStyle=orthogonalEdgeStyle;rounded=0;orthogonalLoop=1;jettySize=auto;html=1;exitX=1;exitY=0.5;exitDx=0;exitDy=0;entryX=0;entryY=0.5;entryDx=0;entryDy=0;fontFamily=Helvetica;fontSize=12;fontColor=default;labelPosition=center;verticalLabelPosition=top;align=center;verticalAlign=bottom;" parent="1" source="fVuIcmsa2AaCxCJn5JJC-4" target="fVuIcmsa2AaCxCJn5JJC-7" edge="1">
          <mxGeometry relative="1" as="geometry" />
        </mxCell>
        <mxCell id="fVuIcmsa2AaCxCJn5JJC-11" value="saleConditionFailed()" style="edgeStyle=orthogonalEdgeStyle;rounded=0;orthogonalLoop=1;jettySize=auto;html=1;exitX=0.5;exitY=0;exitDx=0;exitDy=0;entryX=0.5;entryY=0;entryDx=0;entryDy=0;fontFamily=Helvetica;fontSize=12;fontColor=default;labelPosition=center;verticalLabelPosition=top;align=center;verticalAlign=bottom;" parent="1" source="fVuIcmsa2AaCxCJn5JJC-4" target="fVuIcmsa2AaCxCJn5JJC-3" edge="1">
          <mxGeometry relative="1" as="geometry">
            <Array as="points">
              <mxPoint x="445" y="60" />
              <mxPoint x="230" y="60" />
            </Array>
          </mxGeometry>
        </mxCell>
        <mxCell id="fVuIcmsa2AaCxCJn5JJC-4" value="Under Contract" style="whiteSpace=wrap;html=1;strokeColor=default;align=center;verticalAlign=middle;fontFamily=Helvetica;fontSize=12;fontColor=default;fillColor=default;rounded=1;" parent="1" vertex="1">
          <mxGeometry x="385" y="90" width="120" height="60" as="geometry" />
        </mxCell>
        <mxCell id="fVuIcmsa2AaCxCJn5JJC-10" style="edgeStyle=orthogonalEdgeStyle;rounded=0;orthogonalLoop=1;jettySize=auto;html=1;exitX=1;exitY=0.5;exitDx=0;exitDy=0;entryX=0;entryY=0.5;entryDx=0;entryDy=0;fontFamily=Helvetica;fontSize=12;fontColor=default;" parent="1" source="fVuIcmsa2AaCxCJn5JJC-7" target="fVuIcmsa2AaCxCJn5JJC-9" edge="1">
          <mxGeometry relative="1" as="geometry" />
        </mxCell>
        <mxCell id="fVuIcmsa2AaCxCJn5JJC-7" value="Sold" style="whiteSpace=wrap;html=1;strokeColor=default;align=center;verticalAlign=middle;fontFamily=Helvetica;fontSize=12;fontColor=default;fillColor=default;rounded=1;" parent="1" vertex="1">
          <mxGeometry x="610" y="90" width="120" height="60" as="geometry" />
        </mxCell>
        <mxCell id="fVuIcmsa2AaCxCJn5JJC-9" value="" style="ellipse;html=1;shape=endState;fillColor=strokeColor;strokeColor=default;align=center;verticalAlign=middle;fontFamily=Helvetica;fontSize=12;fontColor=default;" parent="1" vertex="1">
          <mxGeometry x="800" y="105" width="30" height="30" as="geometry" />
        </mxCell>
        <mxCell id="fVuIcmsa2AaCxCJn5JJC-12" value="Revise Listing" style="whiteSpace=wrap;html=1;strokeColor=default;align=center;verticalAlign=middle;fontFamily=Helvetica;fontSize=12;fontColor=default;fillColor=default;rounded=1;" parent="1" vertex="1">
          <mxGeometry x="310" y="280" width="120" height="60" as="geometry" />
        </mxCell>
        <mxCell id="fVuIcmsa2AaCxCJn5JJC-14" value="updateListing()" style="edgeStyle=orthogonalEdgeStyle;rounded=0;orthogonalLoop=1;jettySize=auto;html=1;exitX=0.5;exitY=0;exitDx=0;exitDy=0;entryX=0.58;entryY=1.04;entryDx=0;entryDy=0;entryPerimeter=0;fontFamily=Helvetica;fontSize=12;fontColor=default;labelPosition=center;verticalLabelPosition=top;align=center;verticalAlign=bottom;" parent="1" source="fVuIcmsa2AaCxCJn5JJC-12" target="fVuIcmsa2AaCxCJn5JJC-3" edge="1">
          <mxGeometry relative="1" as="geometry" />
        </mxCell>
      </root>
    </mxGraphModel>
  </diagram>
  <diagram id="r_nJbX-JchevDSqYak7O" name="Page-3">
    <mxGraphModel dx="1042" dy="1852" grid="1" gridSize="10" guides="1" tooltips="1" connect="1" arrows="1" fold="1" page="1" pageScale="1" pageWidth="850" pageHeight="1100" math="0" shadow="0">
      <root>
        <mxCell id="0" />
        <mxCell id="1" parent="0" />
        <mxCell id="bDOF3RYnoRm-7zz-L9O9-1" style="edgeStyle=orthogonalEdgeStyle;rounded=0;orthogonalLoop=1;jettySize=auto;html=1;exitX=0.5;exitY=1;exitDx=0;exitDy=0;entryX=0.5;entryY=0;entryDx=0;entryDy=0;fontFamily=Helvetica;fontSize=12;fontColor=default;" parent="1" target="F7RJpcLgf74IaWyQ3xOd-1" edge="1">
          <mxGeometry relative="1" as="geometry">
            <mxPoint x="460" y="120" as="targetPoint" />
            <mxPoint x="370" y="-20" as="sourcePoint" />
          </mxGeometry>
        </mxCell>
        <mxCell id="xzM8PGzDHIkcCDZ1Neht-12" style="edgeStyle=orthogonalEdgeStyle;rounded=0;orthogonalLoop=1;jettySize=auto;html=1;exitX=0.5;exitY=1;exitDx=0;exitDy=0;entryX=0.5;entryY=0;entryDx=0;entryDy=0;" parent="1" source="ftAg5z-TZvfs0OfNCkCw-1" target="F7RJpcLgf74IaWyQ3xOd-1" edge="1">
          <mxGeometry relative="1" as="geometry" />
        </mxCell>
        <mxCell id="ftAg5z-TZvfs0OfNCkCw-1" value="" style="ellipse;fillColor=strokeColor;html=1;strokeColor=default;align=center;verticalAlign=middle;fontFamily=Helvetica;fontSize=12;fontColor=default;" parent="1" vertex="1">
          <mxGeometry x="355" y="-90" width="30" height="30" as="geometry" />
        </mxCell>
        <mxCell id="uU5Q8RYkNkcpxmv_y2gf-2" style="edgeStyle=orthogonalEdgeStyle;rounded=0;orthogonalLoop=1;jettySize=auto;html=1;exitX=0.5;exitY=1;exitDx=0;exitDy=0;entryX=0.5;entryY=0;entryDx=0;entryDy=0;fontFamily=Helvetica;fontSize=12;fontColor=default;" parent="1" source="F7RJpcLgf74IaWyQ3xOd-1" target="uU5Q8RYkNkcpxmv_y2gf-1" edge="1">
          <mxGeometry relative="1" as="geometry" />
        </mxCell>
        <mxCell id="F7RJpcLgf74IaWyQ3xOd-1" value="&amp;nbsp; Initialized" style="whiteSpace=wrap;html=1;strokeColor=default;align=center;verticalAlign=middle;fontFamily=Helvetica;fontSize=12;fontColor=default;fillColor=default;rounded=1;" parent="1" vertex="1">
          <mxGeometry x="310" y="-5" width="120" height="60" as="geometry" />
        </mxCell>
        <mxCell id="xzM8PGzDHIkcCDZ1Neht-14" style="edgeStyle=orthogonalEdgeStyle;rounded=0;orthogonalLoop=1;jettySize=auto;html=1;exitX=0.5;exitY=1;exitDx=0;exitDy=0;entryX=0.5;entryY=0;entryDx=0;entryDy=0;" parent="1" source="uU5Q8RYkNkcpxmv_y2gf-1" target="xzM8PGzDHIkcCDZ1Neht-4" edge="1">
          <mxGeometry relative="1" as="geometry" />
        </mxCell>
        <mxCell id="xzM8PGzDHIkcCDZ1Neht-19" style="edgeStyle=orthogonalEdgeStyle;rounded=0;orthogonalLoop=1;jettySize=auto;html=1;entryX=0.5;entryY=0;entryDx=0;entryDy=0;" parent="1" target="xzM8PGzDHIkcCDZ1Neht-6" edge="1">
          <mxGeometry relative="1" as="geometry">
            <mxPoint x="370" y="230" as="sourcePoint" />
          </mxGeometry>
        </mxCell>
        <mxCell id="xzM8PGzDHIkcCDZ1Neht-21" style="edgeStyle=orthogonalEdgeStyle;rounded=0;orthogonalLoop=1;jettySize=auto;html=1;exitX=1;exitY=0.5;exitDx=0;exitDy=0;entryX=0.5;entryY=0;entryDx=0;entryDy=0;" parent="1" source="uU5Q8RYkNkcpxmv_y2gf-1" target="xzM8PGzDHIkcCDZ1Neht-5" edge="1">
          <mxGeometry relative="1" as="geometry" />
        </mxCell>
        <mxCell id="xzM8PGzDHIkcCDZ1Neht-30" style="edgeStyle=orthogonalEdgeStyle;rounded=0;orthogonalLoop=1;jettySize=auto;html=1;exitX=0;exitY=0.5;exitDx=0;exitDy=0;entryX=0.5;entryY=0;entryDx=0;entryDy=0;" parent="1" source="uU5Q8RYkNkcpxmv_y2gf-1" target="xzM8PGzDHIkcCDZ1Neht-29" edge="1">
          <mxGeometry relative="1" as="geometry">
            <Array as="points">
              <mxPoint x="250" y="110" />
              <mxPoint x="250" y="440" />
              <mxPoint x="395" y="440" />
            </Array>
          </mxGeometry>
        </mxCell>
        <mxCell id="uU5Q8RYkNkcpxmv_y2gf-1" value="Starts Enrollment" style="whiteSpace=wrap;html=1;strokeColor=default;align=center;verticalAlign=middle;fontFamily=Helvetica;fontSize=12;fontColor=default;fillColor=default;rounded=1;" parent="1" vertex="1">
          <mxGeometry x="310" y="80" width="120" height="60" as="geometry" />
        </mxCell>
        <mxCell id="uU5Q8RYkNkcpxmv_y2gf-6" value="addCourse(cap)" style="text;html=1;align=center;verticalAlign=middle;resizable=0;points=[];autosize=1;strokeColor=none;fillColor=none;fontFamily=Helvetica;fontSize=12;fontColor=default;" parent="1" vertex="1">
          <mxGeometry x="370" y="55" width="110" height="30" as="geometry" />
        </mxCell>
        <mxCell id="xzM8PGzDHIkcCDZ1Neht-2" value="openEnrollmentPeriod(enrollment)" style="text;html=1;align=center;verticalAlign=middle;resizable=0;points=[];autosize=1;strokeColor=none;fillColor=none;" parent="1" vertex="1">
          <mxGeometry x="370" y="140" width="210" height="30" as="geometry" />
        </mxCell>
        <mxCell id="xzM8PGzDHIkcCDZ1Neht-16" style="edgeStyle=orthogonalEdgeStyle;rounded=0;orthogonalLoop=1;jettySize=auto;html=1;exitX=0.5;exitY=1;exitDx=0;exitDy=0;entryX=0.5;entryY=0;entryDx=0;entryDy=0;" parent="1" source="xzM8PGzDHIkcCDZ1Neht-4" target="xzM8PGzDHIkcCDZ1Neht-15" edge="1">
          <mxGeometry relative="1" as="geometry" />
        </mxCell>
        <mxCell id="xzM8PGzDHIkcCDZ1Neht-4" value="Closed" style="whiteSpace=wrap;html=1;rounded=1;" parent="1" vertex="1">
          <mxGeometry x="120" y="320" width="120" height="60" as="geometry" />
        </mxCell>
        <mxCell id="xzM8PGzDHIkcCDZ1Neht-32" style="edgeStyle=orthogonalEdgeStyle;rounded=0;orthogonalLoop=1;jettySize=auto;html=1;exitX=0.5;exitY=1;exitDx=0;exitDy=0;entryX=0.5;entryY=0;entryDx=0;entryDy=0;" parent="1" source="xzM8PGzDHIkcCDZ1Neht-5" target="xzM8PGzDHIkcCDZ1Neht-31" edge="1">
          <mxGeometry relative="1" as="geometry" />
        </mxCell>
        <mxCell id="xzM8PGzDHIkcCDZ1Neht-35" style="edgeStyle=orthogonalEdgeStyle;rounded=0;orthogonalLoop=1;jettySize=auto;html=1;exitX=0.5;exitY=1;exitDx=0;exitDy=0;entryX=0.5;entryY=0;entryDx=0;entryDy=0;" parent="1" source="xzM8PGzDHIkcCDZ1Neht-5" target="xzM8PGzDHIkcCDZ1Neht-34" edge="1">
          <mxGeometry relative="1" as="geometry" />
        </mxCell>
        <mxCell id="xzM8PGzDHIkcCDZ1Neht-40" style="edgeStyle=orthogonalEdgeStyle;rounded=0;orthogonalLoop=1;jettySize=auto;html=1;exitX=0.5;exitY=1;exitDx=0;exitDy=0;entryX=0.5;entryY=0;entryDx=0;entryDy=0;" parent="1" source="xzM8PGzDHIkcCDZ1Neht-34" target="xzM8PGzDHIkcCDZ1Neht-42" edge="1">
          <mxGeometry relative="1" as="geometry">
            <mxPoint x="740" y="600" as="targetPoint" />
          </mxGeometry>
        </mxCell>
        <mxCell id="xzM8PGzDHIkcCDZ1Neht-41" value="Text" style="edgeLabel;html=1;align=center;verticalAlign=middle;resizable=0;points=[];" parent="xzM8PGzDHIkcCDZ1Neht-40" vertex="1" connectable="0">
          <mxGeometry x="1" y="-4" relative="1" as="geometry">
            <mxPoint y="2" as="offset" />
          </mxGeometry>
        </mxCell>
        <mxCell id="xzM8PGzDHIkcCDZ1Neht-45" style="edgeStyle=orthogonalEdgeStyle;rounded=0;orthogonalLoop=1;jettySize=auto;html=1;exitX=1;exitY=0.5;exitDx=0;exitDy=0;entryX=1;entryY=0.5;entryDx=0;entryDy=0;" parent="1" source="xzM8PGzDHIkcCDZ1Neht-5" target="xzM8PGzDHIkcCDZ1Neht-42" edge="1">
          <mxGeometry relative="1" as="geometry">
            <Array as="points">
              <mxPoint x="880" y="200" />
              <mxPoint x="880" y="540" />
            </Array>
          </mxGeometry>
        </mxCell>
        <mxCell id="xzM8PGzDHIkcCDZ1Neht-5" value="Revise Course" style="whiteSpace=wrap;html=1;rounded=1;" parent="1" vertex="1">
          <mxGeometry x="520" y="170" width="120" height="60" as="geometry" />
        </mxCell>
        <mxCell id="xzM8PGzDHIkcCDZ1Neht-6" value="Overfull" style="whiteSpace=wrap;html=1;rounded=1;" parent="1" vertex="1">
          <mxGeometry x="310" y="340" width="120" height="60" as="geometry" />
        </mxCell>
        <mxCell id="xzM8PGzDHIkcCDZ1Neht-10" value="" style="ellipse;html=1;shape=endState;fillColor=strokeColor;" parent="1" vertex="1">
          <mxGeometry x="425" y="870" width="30" height="30" as="geometry" />
        </mxCell>
        <mxCell id="xzM8PGzDHIkcCDZ1Neht-11" value="startRegistration()" style="text;html=1;align=center;verticalAlign=middle;resizable=0;points=[];autosize=1;strokeColor=none;fillColor=none;" parent="1" vertex="1">
          <mxGeometry x="370" y="-35" width="120" height="30" as="geometry" />
        </mxCell>
        <mxCell id="xzM8PGzDHIkcCDZ1Neht-15" value="Enroll with Permission" style="whiteSpace=wrap;html=1;rounded=1;" parent="1" vertex="1">
          <mxGeometry x="120" y="450" width="120" height="60" as="geometry" />
        </mxCell>
        <mxCell id="xzM8PGzDHIkcCDZ1Neht-17" value="[permission given]" style="text;html=1;align=center;verticalAlign=middle;resizable=0;points=[];autosize=1;strokeColor=none;fillColor=none;" parent="1" vertex="1">
          <mxGeometry x="60" y="400" width="120" height="30" as="geometry" />
        </mxCell>
        <mxCell id="xzM8PGzDHIkcCDZ1Neht-18" value="[enrollment = cap]" style="text;html=1;align=center;verticalAlign=middle;resizable=0;points=[];autosize=1;strokeColor=none;fillColor=none;" parent="1" vertex="1">
          <mxGeometry x="60" y="290" width="120" height="30" as="geometry" />
        </mxCell>
        <mxCell id="xzM8PGzDHIkcCDZ1Neht-20" value="[enrollment &amp;gt; cap]" style="text;html=1;align=center;verticalAlign=middle;resizable=0;points=[];autosize=1;strokeColor=none;fillColor=none;" parent="1" vertex="1">
          <mxGeometry x="250" y="300" width="120" height="30" as="geometry" />
        </mxCell>
        <mxCell id="xzM8PGzDHIkcCDZ1Neht-29" value="Dropped course" style="rounded=1;whiteSpace=wrap;html=1;" parent="1" vertex="1">
          <mxGeometry x="335" y="460" width="120" height="60" as="geometry" />
        </mxCell>
        <mxCell id="xzM8PGzDHIkcCDZ1Neht-31" value="Drop Automatically" style="rounded=1;whiteSpace=wrap;html=1;" parent="1" vertex="1">
          <mxGeometry x="455" y="340" width="120" height="60" as="geometry" />
        </mxCell>
        <mxCell id="xzM8PGzDHIkcCDZ1Neht-33" value="[enrollment &amp;lt; 25% cap]" style="text;html=1;align=center;verticalAlign=middle;resizable=0;points=[];autosize=1;strokeColor=none;fillColor=none;" parent="1" vertex="1">
          <mxGeometry x="400" y="248" width="150" height="30" as="geometry" />
        </mxCell>
        <mxCell id="xzM8PGzDHIkcCDZ1Neht-37" style="edgeStyle=orthogonalEdgeStyle;rounded=0;orthogonalLoop=1;jettySize=auto;html=1;exitX=0.5;exitY=1;exitDx=0;exitDy=0;entryX=1;entryY=0.5;entryDx=0;entryDy=0;" parent="1" source="xzM8PGzDHIkcCDZ1Neht-34" target="xzM8PGzDHIkcCDZ1Neht-29" edge="1">
          <mxGeometry relative="1" as="geometry" />
        </mxCell>
        <mxCell id="xzM8PGzDHIkcCDZ1Neht-34" value="Department Confirmation" style="rounded=1;whiteSpace=wrap;html=1;" parent="1" vertex="1">
          <mxGeometry x="600" y="330" width="120" height="60" as="geometry" />
        </mxCell>
        <mxCell id="xzM8PGzDHIkcCDZ1Neht-36" value="[40% Cap&amp;gt; enrollment &amp;gt; 25% cap]" style="text;html=1;align=center;verticalAlign=middle;resizable=0;points=[];autosize=1;strokeColor=none;fillColor=none;" parent="1" vertex="1">
          <mxGeometry x="575" y="248" width="210" height="30" as="geometry" />
        </mxCell>
        <mxCell id="xzM8PGzDHIkcCDZ1Neht-38" value="[department permission = rejected]" style="text;html=1;align=center;verticalAlign=middle;resizable=0;points=[];autosize=1;strokeColor=none;fillColor=none;" parent="1" vertex="1">
          <mxGeometry x="455" y="460" width="210" height="30" as="geometry" />
        </mxCell>
        <mxCell id="xzM8PGzDHIkcCDZ1Neht-42" value="Offered" style="rounded=1;whiteSpace=wrap;html=1;" parent="1" vertex="1">
          <mxGeometry x="690" y="510" width="120" height="60" as="geometry" />
        </mxCell>
        <mxCell id="xzM8PGzDHIkcCDZ1Neht-43" value="[department permission = accepted]" style="text;html=1;align=center;verticalAlign=middle;resizable=0;points=[];autosize=1;strokeColor=none;fillColor=none;" parent="1" vertex="1">
          <mxGeometry x="665" y="410" width="210" height="30" as="geometry" />
        </mxCell>
        <mxCell id="xzM8PGzDHIkcCDZ1Neht-46" value="[enrollment &amp;gt; 40% of cap]" style="text;html=1;align=center;verticalAlign=middle;resizable=0;points=[];autosize=1;strokeColor=none;fillColor=none;" parent="1" vertex="1">
          <mxGeometry x="715" y="170" width="160" height="30" as="geometry" />
        </mxCell>
        <mxCell id="xzM8PGzDHIkcCDZ1Neht-47" value="droppinfACourse()" style="text;html=1;align=center;verticalAlign=middle;resizable=0;points=[];autosize=1;strokeColor=none;fillColor=none;" parent="1" vertex="1">
          <mxGeometry x="190" y="80" width="120" height="30" as="geometry" />
        </mxCell>
      </root>
    </mxGraphModel>
  </diagram>
  <diagram id="FFCb0nQbOn9bpkK-h6dR" name="Page-4">
    <mxGraphModel dx="1042" dy="752" grid="1" gridSize="10" guides="1" tooltips="1" connect="1" arrows="1" fold="1" page="1" pageScale="1" pageWidth="850" pageHeight="1100" math="0" shadow="0">
      <root>
        <mxCell id="0" />
        <mxCell id="1" parent="0" />
        <mxCell id="VkK643X0_uDSevVOsKAW-3" style="edgeStyle=orthogonalEdgeStyle;rounded=0;orthogonalLoop=1;jettySize=auto;html=1;exitX=0.5;exitY=1;exitDx=0;exitDy=0;entryX=0.5;entryY=0;entryDx=0;entryDy=0;" parent="1" source="VkK643X0_uDSevVOsKAW-1" target="VkK643X0_uDSevVOsKAW-2" edge="1">
          <mxGeometry relative="1" as="geometry" />
        </mxCell>
        <mxCell id="VkK643X0_uDSevVOsKAW-1" value="" style="ellipse;fillColor=strokeColor;html=1;" parent="1" vertex="1">
          <mxGeometry x="365" y="20" width="30" height="30" as="geometry" />
        </mxCell>
        <mxCell id="fI67OLRSFvG5UmVCzv-8-3" style="edgeStyle=orthogonalEdgeStyle;rounded=0;orthogonalLoop=1;jettySize=auto;html=1;exitX=0.5;exitY=1;exitDx=0;exitDy=0;entryX=0.5;entryY=0;entryDx=0;entryDy=0;" parent="1" source="VkK643X0_uDSevVOsKAW-2" target="fI67OLRSFvG5UmVCzv-8-1" edge="1">
          <mxGeometry relative="1" as="geometry" />
        </mxCell>
        <mxCell id="fI67OLRSFvG5UmVCzv-8-8" style="edgeStyle=orthogonalEdgeStyle;rounded=0;orthogonalLoop=1;jettySize=auto;html=1;exitX=0;exitY=0.5;exitDx=0;exitDy=0;entryX=0.5;entryY=0;entryDx=0;entryDy=0;" parent="1" source="VkK643X0_uDSevVOsKAW-2" target="JuKpr60L9NFlzaHGwmxA-8" edge="1">
          <mxGeometry relative="1" as="geometry" />
        </mxCell>
        <mxCell id="VkK643X0_uDSevVOsKAW-2" value="Login Page Displayed" style="rounded=1;whiteSpace=wrap;html=1;" parent="1" vertex="1">
          <mxGeometry x="320" y="80" width="120" height="60" as="geometry" />
        </mxCell>
        <mxCell id="JuKpr60L9NFlzaHGwmxA-11" style="edgeStyle=orthogonalEdgeStyle;rounded=0;orthogonalLoop=1;jettySize=auto;html=1;exitX=0.5;exitY=1;exitDx=0;exitDy=0;entryX=0.5;entryY=1;entryDx=0;entryDy=0;" parent="1" source="JuKpr60L9NFlzaHGwmxA-5" target="JuKpr60L9NFlzaHGwmxA-12" edge="1">
          <mxGeometry relative="1" as="geometry">
            <mxPoint x="370" y="520" as="targetPoint" />
          </mxGeometry>
        </mxCell>
        <mxCell id="JuKpr60L9NFlzaHGwmxA-5" value="Logged in Successfully&amp;nbsp;" style="rounded=1;whiteSpace=wrap;html=1;" parent="1" vertex="1">
          <mxGeometry x="320" y="320" width="120" height="60" as="geometry" />
        </mxCell>
        <mxCell id="JuKpr60L9NFlzaHGwmxA-6" value="[account exists]" style="text;html=1;align=center;verticalAlign=middle;resizable=0;points=[];autosize=1;strokeColor=none;fillColor=none;" parent="1" vertex="1">
          <mxGeometry x="270" y="280" width="110" height="30" as="geometry" />
        </mxCell>
        <mxCell id="fI67OLRSFvG5UmVCzv-8-10" style="edgeStyle=orthogonalEdgeStyle;rounded=0;orthogonalLoop=1;jettySize=auto;html=1;exitX=1;exitY=0.5;exitDx=0;exitDy=0;entryX=0;entryY=0.5;entryDx=0;entryDy=0;" parent="1" source="JuKpr60L9NFlzaHGwmxA-8" target="fI67OLRSFvG5UmVCzv-8-1" edge="1">
          <mxGeometry relative="1" as="geometry" />
        </mxCell>
        <mxCell id="JuKpr60L9NFlzaHGwmxA-8" value="Register For a New Account" style="rounded=1;whiteSpace=wrap;html=1;" parent="1" vertex="1">
          <mxGeometry x="160" y="200" width="120" height="60" as="geometry" />
        </mxCell>
        <mxCell id="JuKpr60L9NFlzaHGwmxA-9" value="[account does not exist]" style="text;html=1;align=center;verticalAlign=middle;resizable=0;points=[];autosize=1;strokeColor=none;fillColor=none;" parent="1" vertex="1">
          <mxGeometry x="470" y="80" width="150" height="30" as="geometry" />
        </mxCell>
        <mxCell id="BtmD8oiBMzgdxaSrED8o-6" style="edgeStyle=orthogonalEdgeStyle;rounded=0;orthogonalLoop=1;jettySize=auto;html=1;exitX=0.5;exitY=0;exitDx=0;exitDy=0;entryX=0.5;entryY=0;entryDx=0;entryDy=0;" parent="1" source="JuKpr60L9NFlzaHGwmxA-12" target="BtmD8oiBMzgdxaSrED8o-2" edge="1">
          <mxGeometry relative="1" as="geometry" />
        </mxCell>
        <mxCell id="A-L09N2l_Zbwhcdjuxwh-2" style="edgeStyle=orthogonalEdgeStyle;rounded=0;orthogonalLoop=1;jettySize=auto;html=1;exitX=0.5;exitY=0;exitDx=0;exitDy=0;entryX=0.5;entryY=0;entryDx=0;entryDy=0;" parent="1" source="JuKpr60L9NFlzaHGwmxA-12" target="A-L09N2l_Zbwhcdjuxwh-1" edge="1">
          <mxGeometry relative="1" as="geometry" />
        </mxCell>
        <mxCell id="A-L09N2l_Zbwhcdjuxwh-6" style="edgeStyle=orthogonalEdgeStyle;rounded=0;orthogonalLoop=1;jettySize=auto;html=1;exitX=0.5;exitY=0;exitDx=0;exitDy=0;entryX=0.5;entryY=0;entryDx=0;entryDy=0;" parent="1" source="JuKpr60L9NFlzaHGwmxA-12" target="A-L09N2l_Zbwhcdjuxwh-5" edge="1">
          <mxGeometry relative="1" as="geometry" />
        </mxCell>
        <mxCell id="A-L09N2l_Zbwhcdjuxwh-20" style="edgeStyle=orthogonalEdgeStyle;rounded=0;orthogonalLoop=1;jettySize=auto;html=1;exitX=0;exitY=0.5;exitDx=0;exitDy=0;entryX=0.5;entryY=0;entryDx=0;entryDy=0;" parent="1" source="JuKpr60L9NFlzaHGwmxA-12" target="A-L09N2l_Zbwhcdjuxwh-19" edge="1">
          <mxGeometry relative="1" as="geometry" />
        </mxCell>
        <mxCell id="IJhOduzZKyrrViRIaua3-6" style="edgeStyle=orthogonalEdgeStyle;rounded=0;orthogonalLoop=1;jettySize=auto;html=1;exitX=0;exitY=1;exitDx=0;exitDy=0;entryX=0.5;entryY=0;entryDx=0;entryDy=0;" parent="1" source="JuKpr60L9NFlzaHGwmxA-12" target="IJhOduzZKyrrViRIaua3-7" edge="1">
          <mxGeometry relative="1" as="geometry">
            <mxPoint x="730" y="610" as="targetPoint" />
            <Array as="points">
              <mxPoint x="440" y="420" />
              <mxPoint x="731" y="420" />
              <mxPoint x="731" y="600" />
              <mxPoint x="690" y="600" />
            </Array>
          </mxGeometry>
        </mxCell>
        <mxCell id="JuKpr60L9NFlzaHGwmxA-12" value="Give Access to Dashboard" style="rounded=1;whiteSpace=wrap;html=1;direction=west;" parent="1" vertex="1">
          <mxGeometry x="320" y="440" width="120" height="60" as="geometry" />
        </mxCell>
        <mxCell id="A-L09N2l_Zbwhcdjuxwh-9" style="edgeStyle=orthogonalEdgeStyle;rounded=0;orthogonalLoop=1;jettySize=auto;html=1;exitX=0.5;exitY=1;exitDx=0;exitDy=0;entryX=0.5;entryY=0;entryDx=0;entryDy=0;" parent="1" source="BtmD8oiBMzgdxaSrED8o-2" target="A-L09N2l_Zbwhcdjuxwh-8" edge="1">
          <mxGeometry relative="1" as="geometry" />
        </mxCell>
        <mxCell id="BtmD8oiBMzgdxaSrED8o-2" value="Bank Page" style="rounded=1;whiteSpace=wrap;html=1;" parent="1" vertex="1">
          <mxGeometry x="100" y="570" width="120" height="60" as="geometry" />
        </mxCell>
        <mxCell id="BtmD8oiBMzgdxaSrED8o-4" value="openBankPage()" style="text;html=1;align=center;verticalAlign=middle;resizable=0;points=[];autosize=1;strokeColor=none;fillColor=none;" parent="1" vertex="1">
          <mxGeometry x="220" y="510" width="110" height="30" as="geometry" />
        </mxCell>
        <mxCell id="fI67OLRSFvG5UmVCzv-8-5" style="edgeStyle=orthogonalEdgeStyle;rounded=0;orthogonalLoop=1;jettySize=auto;html=1;exitX=0.5;exitY=1;exitDx=0;exitDy=0;entryX=0.5;entryY=0;entryDx=0;entryDy=0;" parent="1" source="fI67OLRSFvG5UmVCzv-8-1" target="JuKpr60L9NFlzaHGwmxA-5" edge="1">
          <mxGeometry relative="1" as="geometry" />
        </mxCell>
        <mxCell id="fI67OLRSFvG5UmVCzv-8-11" style="edgeStyle=orthogonalEdgeStyle;rounded=0;orthogonalLoop=1;jettySize=auto;html=1;exitX=1;exitY=0.5;exitDx=0;exitDy=0;entryX=1;entryY=0.5;entryDx=0;entryDy=0;" parent="1" source="fI67OLRSFvG5UmVCzv-8-1" target="VkK643X0_uDSevVOsKAW-2" edge="1">
          <mxGeometry relative="1" as="geometry">
            <Array as="points">
              <mxPoint x="610" y="230" />
              <mxPoint x="610" y="110" />
            </Array>
          </mxGeometry>
        </mxCell>
        <mxCell id="fI67OLRSFvG5UmVCzv-8-1" value="Validate Credintials" style="rounded=1;whiteSpace=wrap;html=1;" parent="1" vertex="1">
          <mxGeometry x="320" y="200" width="120" height="60" as="geometry" />
        </mxCell>
        <mxCell id="fI67OLRSFvG5UmVCzv-8-4" value="enterCredintials(username, password)" style="text;html=1;align=center;verticalAlign=middle;resizable=0;points=[];autosize=1;strokeColor=none;fillColor=none;" parent="1" vertex="1">
          <mxGeometry x="370" y="150" width="230" height="30" as="geometry" />
        </mxCell>
        <mxCell id="fI67OLRSFvG5UmVCzv-8-9" value="createNewAccount()" style="text;html=1;align=center;verticalAlign=middle;resizable=0;points=[];autosize=1;strokeColor=none;fillColor=none;" parent="1" vertex="1">
          <mxGeometry x="180" y="80" width="130" height="30" as="geometry" />
        </mxCell>
        <mxCell id="A-L09N2l_Zbwhcdjuxwh-17" style="edgeStyle=orthogonalEdgeStyle;rounded=0;orthogonalLoop=1;jettySize=auto;html=1;exitX=0.5;exitY=1;exitDx=0;exitDy=0;entryX=0.5;entryY=0;entryDx=0;entryDy=0;" parent="1" source="A-L09N2l_Zbwhcdjuxwh-1" target="A-L09N2l_Zbwhcdjuxwh-14" edge="1">
          <mxGeometry relative="1" as="geometry" />
        </mxCell>
        <mxCell id="A-L09N2l_Zbwhcdjuxwh-1" value="Analysis Page" style="rounded=1;whiteSpace=wrap;html=1;" parent="1" vertex="1">
          <mxGeometry x="320" y="600" width="120" height="60" as="geometry" />
        </mxCell>
        <mxCell id="A-L09N2l_Zbwhcdjuxwh-3" value="openAnalysisPage()" style="text;html=1;align=center;verticalAlign=middle;resizable=0;points=[];autosize=1;strokeColor=none;fillColor=none;" parent="1" vertex="1">
          <mxGeometry x="380" y="550" width="130" height="30" as="geometry" />
        </mxCell>
        <mxCell id="IJhOduzZKyrrViRIaua3-3" style="edgeStyle=orthogonalEdgeStyle;rounded=0;orthogonalLoop=1;jettySize=auto;html=1;exitX=0.75;exitY=1;exitDx=0;exitDy=0;entryX=0.699;entryY=-0.058;entryDx=0;entryDy=0;entryPerimeter=0;" parent="1" source="A-L09N2l_Zbwhcdjuxwh-5" target="IJhOduzZKyrrViRIaua3-4" edge="1">
          <mxGeometry relative="1" as="geometry">
            <mxPoint x="570.0869565217392" y="710" as="targetPoint" />
          </mxGeometry>
        </mxCell>
        <mxCell id="A-L09N2l_Zbwhcdjuxwh-5" value="Calender Page" style="rounded=1;whiteSpace=wrap;html=1;" parent="1" vertex="1">
          <mxGeometry x="480" y="600" width="120" height="60" as="geometry" />
        </mxCell>
        <mxCell id="A-L09N2l_Zbwhcdjuxwh-7" value="openCalenderPage()" style="text;html=1;align=center;verticalAlign=middle;resizable=0;points=[];autosize=1;strokeColor=none;fillColor=none;" parent="1" vertex="1">
          <mxGeometry x="420" y="520" width="130" height="30" as="geometry" />
        </mxCell>
        <mxCell id="A-L09N2l_Zbwhcdjuxwh-13" style="edgeStyle=orthogonalEdgeStyle;rounded=0;orthogonalLoop=1;jettySize=auto;html=1;exitX=0.5;exitY=1;exitDx=0;exitDy=0;entryX=0.5;entryY=0;entryDx=0;entryDy=0;" parent="1" source="A-L09N2l_Zbwhcdjuxwh-8" target="A-L09N2l_Zbwhcdjuxwh-12" edge="1">
          <mxGeometry relative="1" as="geometry" />
        </mxCell>
        <mxCell id="A-L09N2l_Zbwhcdjuxwh-8" value="Bank Account Connected" style="rounded=1;whiteSpace=wrap;html=1;" parent="1" vertex="1">
          <mxGeometry x="100" y="680" width="120" height="60" as="geometry" />
        </mxCell>
        <mxCell id="A-L09N2l_Zbwhcdjuxwh-10" value="connectBankAccount()" style="text;html=1;align=center;verticalAlign=middle;resizable=0;points=[];autosize=1;strokeColor=none;fillColor=none;" parent="1" vertex="1">
          <mxGeometry x="20" y="640" width="140" height="30" as="geometry" />
        </mxCell>
        <mxCell id="A-L09N2l_Zbwhcdjuxwh-11" value="syncTransactions()" style="text;html=1;align=center;verticalAlign=middle;resizable=0;points=[];autosize=1;strokeColor=none;fillColor=none;" parent="1" vertex="1">
          <mxGeometry x="30" y="740" width="120" height="30" as="geometry" />
        </mxCell>
        <mxCell id="A-L09N2l_Zbwhcdjuxwh-22" style="edgeStyle=orthogonalEdgeStyle;rounded=0;orthogonalLoop=1;jettySize=auto;html=1;exitX=1;exitY=0.5;exitDx=0;exitDy=0;entryX=0;entryY=0.5;entryDx=0;entryDy=0;" parent="1" source="A-L09N2l_Zbwhcdjuxwh-12" target="A-L09N2l_Zbwhcdjuxwh-1" edge="1">
          <mxGeometry relative="1" as="geometry" />
        </mxCell>
        <mxCell id="IJhOduzZKyrrViRIaua3-19" style="edgeStyle=orthogonalEdgeStyle;rounded=0;orthogonalLoop=1;jettySize=auto;html=1;exitX=0.5;exitY=1;exitDx=0;exitDy=0;entryX=0.5;entryY=0;entryDx=0;entryDy=0;" parent="1" source="A-L09N2l_Zbwhcdjuxwh-12" target="IJhOduzZKyrrViRIaua3-18" edge="1">
          <mxGeometry relative="1" as="geometry" />
        </mxCell>
        <mxCell id="A-L09N2l_Zbwhcdjuxwh-12" value="Transactions Synched" style="rounded=1;whiteSpace=wrap;html=1;" parent="1" vertex="1">
          <mxGeometry x="100" y="780" width="120" height="60" as="geometry" />
        </mxCell>
        <mxCell id="IJhOduzZKyrrViRIaua3-21" style="edgeStyle=orthogonalEdgeStyle;rounded=0;orthogonalLoop=1;jettySize=auto;html=1;exitX=0.5;exitY=1;exitDx=0;exitDy=0;entryX=0.5;entryY=0;entryDx=0;entryDy=0;" parent="1" source="A-L09N2l_Zbwhcdjuxwh-14" target="IJhOduzZKyrrViRIaua3-18" edge="1">
          <mxGeometry relative="1" as="geometry" />
        </mxCell>
        <mxCell id="A-L09N2l_Zbwhcdjuxwh-14" value="Track earnings and spendings" style="rounded=1;whiteSpace=wrap;html=1;" parent="1" vertex="1">
          <mxGeometry x="320" y="700" width="120" height="60" as="geometry" />
        </mxCell>
        <mxCell id="A-L09N2l_Zbwhcdjuxwh-16" value="trackEarningsAndSpendings()" style="text;html=1;align=center;verticalAlign=middle;resizable=0;points=[];autosize=1;strokeColor=none;fillColor=none;" parent="1" vertex="1">
          <mxGeometry x="370" y="660" width="180" height="30" as="geometry" />
        </mxCell>
        <mxCell id="A-L09N2l_Zbwhcdjuxwh-19" value="Input page" style="rounded=1;whiteSpace=wrap;html=1;" parent="1" vertex="1">
          <mxGeometry x="560" y="505" width="120" height="60" as="geometry" />
        </mxCell>
        <mxCell id="A-L09N2l_Zbwhcdjuxwh-21" value="selectToInput()" style="text;html=1;align=center;verticalAlign=middle;resizable=0;points=[];autosize=1;strokeColor=none;fillColor=none;" parent="1" vertex="1">
          <mxGeometry x="480" y="440" width="100" height="30" as="geometry" />
        </mxCell>
        <mxCell id="IJhOduzZKyrrViRIaua3-1" value="sendInfo()" style="text;html=1;align=center;verticalAlign=middle;resizable=0;points=[];autosize=1;strokeColor=none;fillColor=none;" parent="1" vertex="1">
          <mxGeometry x="240" y="600" width="80" height="30" as="geometry" />
        </mxCell>
        <mxCell id="IJhOduzZKyrrViRIaua3-24" style="edgeStyle=orthogonalEdgeStyle;rounded=0;orthogonalLoop=1;jettySize=auto;html=1;exitX=0.5;exitY=1;exitDx=0;exitDy=0;entryX=0.5;entryY=0;entryDx=0;entryDy=0;" parent="1" source="IJhOduzZKyrrViRIaua3-4" target="IJhOduzZKyrrViRIaua3-18" edge="1">
          <mxGeometry relative="1" as="geometry" />
        </mxCell>
        <mxCell id="IJhOduzZKyrrViRIaua3-4" value="Events Edited" style="rounded=1;whiteSpace=wrap;html=1;" parent="1" vertex="1">
          <mxGeometry x="485" y="730" width="120" height="60" as="geometry" />
        </mxCell>
        <mxCell id="IJhOduzZKyrrViRIaua3-5" value="manageEvents()" style="text;html=1;align=center;verticalAlign=middle;resizable=0;points=[];autosize=1;strokeColor=none;fillColor=none;" parent="1" vertex="1">
          <mxGeometry x="470" y="695" width="110" height="30" as="geometry" />
        </mxCell>
        <mxCell id="IJhOduzZKyrrViRIaua3-10" style="edgeStyle=orthogonalEdgeStyle;rounded=0;orthogonalLoop=1;jettySize=auto;html=1;exitX=0.5;exitY=1;exitDx=0;exitDy=0;entryX=0.25;entryY=0;entryDx=0;entryDy=0;" parent="1" source="IJhOduzZKyrrViRIaua3-7" target="IJhOduzZKyrrViRIaua3-9" edge="1">
          <mxGeometry relative="1" as="geometry" />
        </mxCell>
        <mxCell id="IJhOduzZKyrrViRIaua3-7" value="Profile" style="rounded=1;whiteSpace=wrap;html=1;" parent="1" vertex="1">
          <mxGeometry x="630" y="635" width="120" height="60" as="geometry" />
        </mxCell>
        <mxCell id="IJhOduzZKyrrViRIaua3-8" value="selectProfile()" style="text;html=1;align=center;verticalAlign=middle;resizable=0;points=[];autosize=1;strokeColor=none;fillColor=none;" parent="1" vertex="1">
          <mxGeometry x="560" y="390" width="100" height="30" as="geometry" />
        </mxCell>
        <mxCell id="IJhOduzZKyrrViRIaua3-13" style="edgeStyle=orthogonalEdgeStyle;rounded=0;orthogonalLoop=1;jettySize=auto;html=1;exitX=0;exitY=0.5;exitDx=0;exitDy=0;entryX=0.75;entryY=0;entryDx=0;entryDy=0;" parent="1" source="IJhOduzZKyrrViRIaua3-7" target="IJhOduzZKyrrViRIaua3-12" edge="1">
          <mxGeometry relative="1" as="geometry" />
        </mxCell>
        <mxCell id="IJhOduzZKyrrViRIaua3-16" style="edgeStyle=orthogonalEdgeStyle;rounded=0;orthogonalLoop=1;jettySize=auto;html=1;exitX=0.75;exitY=1;exitDx=0;exitDy=0;entryX=0.25;entryY=0;entryDx=0;entryDy=0;" parent="1" source="IJhOduzZKyrrViRIaua3-9" target="IJhOduzZKyrrViRIaua3-15" edge="1">
          <mxGeometry relative="1" as="geometry" />
        </mxCell>
        <mxCell id="IJhOduzZKyrrViRIaua3-9" value="Settings" style="rounded=1;whiteSpace=wrap;html=1;" parent="1" vertex="1">
          <mxGeometry x="640" y="750" width="120" height="60" as="geometry" />
        </mxCell>
        <mxCell id="IJhOduzZKyrrViRIaua3-11" value="manageProfile()" style="text;html=1;align=center;verticalAlign=middle;resizable=0;points=[];autosize=1;strokeColor=none;fillColor=none;" parent="1" vertex="1">
          <mxGeometry x="675" y="718" width="110" height="30" as="geometry" />
        </mxCell>
        <mxCell id="IJhOduzZKyrrViRIaua3-22" style="edgeStyle=orthogonalEdgeStyle;rounded=0;orthogonalLoop=1;jettySize=auto;html=1;exitX=0.5;exitY=1;exitDx=0;exitDy=0;entryX=0.5;entryY=0;entryDx=0;entryDy=0;" parent="1" source="IJhOduzZKyrrViRIaua3-12" target="IJhOduzZKyrrViRIaua3-18" edge="1">
          <mxGeometry relative="1" as="geometry" />
        </mxCell>
        <mxCell id="IJhOduzZKyrrViRIaua3-12" value="Reminders Set" style="rounded=1;whiteSpace=wrap;html=1;" parent="1" vertex="1">
          <mxGeometry x="520" y="850" width="120" height="60" as="geometry" />
        </mxCell>
        <mxCell id="IJhOduzZKyrrViRIaua3-14" value="setReminders()" style="text;html=1;align=center;verticalAlign=middle;resizable=0;points=[];autosize=1;strokeColor=none;fillColor=none;" parent="1" vertex="1">
          <mxGeometry x="495" y="820" width="110" height="30" as="geometry" />
        </mxCell>
        <mxCell id="IJhOduzZKyrrViRIaua3-23" style="edgeStyle=orthogonalEdgeStyle;rounded=0;orthogonalLoop=1;jettySize=auto;html=1;exitX=0.5;exitY=1;exitDx=0;exitDy=0;entryX=0.5;entryY=0;entryDx=0;entryDy=0;" parent="1" source="IJhOduzZKyrrViRIaua3-15" target="IJhOduzZKyrrViRIaua3-18" edge="1">
          <mxGeometry relative="1" as="geometry" />
        </mxCell>
        <mxCell id="IJhOduzZKyrrViRIaua3-15" value="Manage Notifications" style="rounded=1;whiteSpace=wrap;html=1;" parent="1" vertex="1">
          <mxGeometry x="680" y="860" width="120" height="60" as="geometry" />
        </mxCell>
        <mxCell id="IJhOduzZKyrrViRIaua3-17" value="Notifications()" style="text;html=1;align=center;verticalAlign=middle;resizable=0;points=[];autosize=1;strokeColor=none;fillColor=none;" parent="1" vertex="1">
          <mxGeometry x="730" y="830" width="100" height="30" as="geometry" />
        </mxCell>
        <mxCell id="IJhOduzZKyrrViRIaua3-18" value="" style="ellipse;html=1;shape=endState;fillColor=strokeColor;" parent="1" vertex="1">
          <mxGeometry x="395" y="1040" width="30" height="30" as="geometry" />
        </mxCell>
      </root>
    </mxGraphModel>
  </diagram>
</mxfile>
